<mxfile host="app.diagrams.net" modified="2023-05-24T13:34:27.246Z" agent="Mozilla/5.0 (Macintosh; Intel Mac OS X 10.13; rv:109.0) Gecko/20100101 Firefox/114.0" etag="wYxaSvFKENh9qBzgas3D" version="21.2.9" type="github">
  <diagram id="TvRfJh1XhFiqvHRjfqlR" name="PÃ¡gina-1">
    <mxGraphModel dx="794" dy="520" grid="1" gridSize="10" guides="1" tooltips="1" connect="1" arrows="1" fold="1" page="1" pageScale="1" pageWidth="1100" pageHeight="850" math="0" shadow="0">
      <root>
        <mxCell id="0" />
        <mxCell id="1" parent="0" />
        <mxCell id="DZzpyy3WHEQ_xLKTPqUf-3" value="Framework Online" style="html=1;strokeColor=none;fillColor=#0079D6;labelPosition=center;verticalLabelPosition=middle;verticalAlign=top;align=center;fontSize=12;outlineConnect=0;spacingTop=-6;fontColor=#FFFFFF;sketch=0;shape=mxgraph.sitemap.cloud;dashed=1;" parent="1" vertex="1">
          <mxGeometry x="620" y="200.83" width="170" height="99.17" as="geometry" />
        </mxCell>
        <mxCell id="DZzpyy3WHEQ_xLKTPqUf-4" value="" style="html=1;verticalLabelPosition=bottom;align=center;labelBackgroundColor=#ffffff;verticalAlign=top;strokeWidth=2;strokeColor=#0080F0;shadow=0;dashed=0;shape=mxgraph.ios7.icons.data;fontSize=21;fillColor=none;" parent="1" vertex="1">
          <mxGeometry x="809.3499999999999" y="390" width="60.65" height="80" as="geometry" />
        </mxCell>
        <mxCell id="DZzpyy3WHEQ_xLKTPqUf-5" value="" style="sketch=0;points=[[0,0,0],[0.25,0,0],[0.5,0,0],[0.75,0,0],[1,0,0],[0,1,0],[0.25,1,0],[0.5,1,0],[0.75,1,0],[1,1,0],[0,0.25,0],[0,0.5,0],[0,0.75,0],[1,0.25,0],[1,0.5,0],[1,0.75,0]];outlineConnect=0;fontColor=#232F3E;gradientColor=#FF4F8B;gradientDirection=north;fillColor=#BC1356;strokeColor=#ffffff;dashed=0;verticalLabelPosition=bottom;verticalAlign=top;align=center;html=1;fontSize=12;fontStyle=0;aspect=fixed;shape=mxgraph.aws4.resourceIcon;resIcon=mxgraph.aws4.sns;" parent="1" vertex="1">
          <mxGeometry x="620" y="390" width="80" height="80" as="geometry" />
        </mxCell>
        <mxCell id="DZzpyy3WHEQ_xLKTPqUf-6" value="" style="sketch=0;points=[[0,0,0],[0.25,0,0],[0.5,0,0],[0.75,0,0],[1,0,0],[0,1,0],[0.25,1,0],[0.5,1,0],[0.75,1,0],[1,1,0],[0,0.25,0],[0,0.5,0],[0,0.75,0],[1,0.25,0],[1,0.5,0],[1,0.75,0]];outlineConnect=0;fontColor=#232F3E;gradientColor=#4AB29A;gradientDirection=north;fillColor=#116D5B;strokeColor=#ffffff;dashed=0;verticalLabelPosition=bottom;verticalAlign=top;align=center;html=1;fontSize=12;fontStyle=0;aspect=fixed;shape=mxgraph.aws4.resourceIcon;resIcon=mxgraph.aws4.sagemaker;" parent="1" vertex="1">
          <mxGeometry x="371" y="360" width="138" height="138" as="geometry" />
        </mxCell>
        <mxCell id="DZzpyy3WHEQ_xLKTPqUf-7" value="Servicio Machine Learning" style="text;html=1;strokeColor=none;fillColor=none;align=center;verticalAlign=middle;whiteSpace=wrap;rounded=0;dashed=1;fontSize=21;" parent="1" vertex="1">
          <mxGeometry x="350" y="520" width="180" height="30" as="geometry" />
        </mxCell>
        <mxCell id="DZzpyy3WHEQ_xLKTPqUf-8" value="Servicio notificaciones" style="text;html=1;strokeColor=none;fillColor=none;align=center;verticalAlign=middle;whiteSpace=wrap;rounded=0;dashed=1;fontSize=21;" parent="1" vertex="1">
          <mxGeometry x="570" y="488" width="180" height="30" as="geometry" />
        </mxCell>
        <mxCell id="DZzpyy3WHEQ_xLKTPqUf-9" value="Servicio de almacenamiento" style="text;html=1;strokeColor=none;fillColor=none;align=center;verticalAlign=middle;whiteSpace=wrap;rounded=0;dashed=1;fontSize=21;" parent="1" vertex="1">
          <mxGeometry x="750" y="488" width="180" height="30" as="geometry" />
        </mxCell>
        <mxCell id="DZzpyy3WHEQ_xLKTPqUf-11" value="" style="endArrow=block;startArrow=block;html=1;rounded=0;fontSize=21;strokeWidth=6;startFill=1;endFill=1;" parent="1" source="DZzpyy3WHEQ_xLKTPqUf-6" target="DZzpyy3WHEQ_xLKTPqUf-3" edge="1">
          <mxGeometry width="50" height="50" relative="1" as="geometry">
            <mxPoint x="400" y="360" as="sourcePoint" />
            <mxPoint x="450" y="310" as="targetPoint" />
          </mxGeometry>
        </mxCell>
        <mxCell id="DZzpyy3WHEQ_xLKTPqUf-12" value="" style="endArrow=block;startArrow=block;html=1;rounded=0;fontSize=21;strokeWidth=6;startFill=1;endFill=1;" parent="1" source="DZzpyy3WHEQ_xLKTPqUf-5" target="DZzpyy3WHEQ_xLKTPqUf-3" edge="1">
          <mxGeometry width="50" height="50" relative="1" as="geometry">
            <mxPoint x="410" y="370" as="sourcePoint" />
            <mxPoint x="560" y="297.7777777777778" as="targetPoint" />
          </mxGeometry>
        </mxCell>
        <mxCell id="DZzpyy3WHEQ_xLKTPqUf-13" value="" style="endArrow=block;startArrow=block;html=1;rounded=0;fontSize=21;strokeWidth=6;startFill=1;endFill=1;exitX=0.632;exitY=0;exitDx=0;exitDy=0;exitPerimeter=0;entryX=0.908;entryY=1;entryDx=0;entryDy=0;entryPerimeter=0;" parent="1" source="DZzpyy3WHEQ_xLKTPqUf-4" target="DZzpyy3WHEQ_xLKTPqUf-3" edge="1">
          <mxGeometry width="50" height="50" relative="1" as="geometry">
            <mxPoint x="420" y="380" as="sourcePoint" />
            <mxPoint x="570" y="307.7777777777778" as="targetPoint" />
          </mxGeometry>
        </mxCell>
        <mxCell id="DZzpyy3WHEQ_xLKTPqUf-14" value="" style="sketch=0;pointerEvents=1;shadow=0;dashed=0;html=1;strokeColor=none;labelPosition=center;verticalLabelPosition=bottom;verticalAlign=top;align=center;fillColor=#505050;shape=mxgraph.mscae.intune.device_group;fontSize=21;" parent="1" vertex="1">
          <mxGeometry x="380" y="90" width="100" height="100" as="geometry" />
        </mxCell>
        <mxCell id="DZzpyy3WHEQ_xLKTPqUf-16" value="" style="endArrow=block;startArrow=block;html=1;rounded=0;fontSize=21;strokeWidth=6;startFill=1;endFill=1;entryX=0.96;entryY=0.79;entryDx=0;entryDy=0;entryPerimeter=0;" parent="1" source="DZzpyy3WHEQ_xLKTPqUf-3" target="DZzpyy3WHEQ_xLKTPqUf-14" edge="1">
          <mxGeometry width="50" height="50" relative="1" as="geometry">
            <mxPoint x="857.6807999999999" y="400" as="sourcePoint" />
            <mxPoint x="784.3600000000001" y="310" as="targetPoint" />
          </mxGeometry>
        </mxCell>
      </root>
    </mxGraphModel>
  </diagram>
</mxfile>
